<svg width="96" height="15" viewBox="0 0 96 15" fill="none" xmlns="http://www.w3.org/2000/svg">
<g id="Group 12">
<g id="logo_32px">
<path id="Vector" d="M7.30377 14.6075C11.3375 14.6075 14.6075 11.3375 14.6075 7.30377C14.6075 3.27001 11.3375 0 7.30377 0C3.27001 0 0 3.27001 0 7.30377C0 11.3375 3.27001 14.6075 7.30377 14.6075Z" fill="#009688"/>
<path id="Vector_2" d="M7.30377 13.6946C10.8333 13.6946 13.6946 10.8333 13.6946 7.30376C13.6946 3.77422 10.8333 0.912964 7.30377 0.912964C3.77423 0.912964 0.912971 3.77422 0.912971 7.30376C0.912971 10.8333 3.77423 13.6946 7.30377 13.6946Z" fill="white"/>
<path id="Vector_3" d="M7.30377 13.0098C10.4552 13.0098 13.0098 10.4551 13.0098 7.30376C13.0098 4.15238 10.4552 1.59769 7.30377 1.59769C4.1524 1.59769 1.5977 4.15238 1.5977 7.30376C1.5977 10.4551 4.1524 13.0098 7.30377 13.0098Z" fill="#009688"/>
<path id="Vector_4" d="M5.47783 6.84729H5.93432V11.4121H5.02135V6.84729H3.1954V5.93432H4.08099C4.28427 5.93442 4.48177 5.86666 4.64219 5.74179C4.80261 5.61693 4.91676 5.44211 4.96657 5.24502L5.47783 3.1954H6.3908L5.76085 5.71064C5.74553 5.77423 5.7093 5.8308 5.65799 5.87135C5.60668 5.91191 5.54324 5.9341 5.47783 5.93432V6.84729Z" fill="white"/>
<path id="Vector_5" d="M7.76026 5.93432V6.84729H11.4121V7.76026H7.76026V8.67323H11.4121V9.5862H7.76026V11.4121H6.84729V6.84729H6.3908V5.93432C6.45621 5.9341 6.51964 5.91191 6.57096 5.87135C6.62227 5.8308 6.65849 5.77423 6.67382 5.71064L7.30377 3.1954H8.21674L7.76026 5.02135H11.4121V5.93432H7.76026Z" fill="white"/>
</g>
<g id="wordmark_32px">
<path id="Vector_6" d="M26.0503 4.81813L24.6639 5.44617C24.5812 5.18485 24.4177 4.95646 24.197 4.79393C23.9762 4.6314 23.7096 4.54309 23.4355 4.54167C23.3229 4.52574 23.2082 4.53433 23.0992 4.56684C22.9902 4.59934 22.8895 4.65499 22.804 4.72999C22.7185 4.805 22.6502 4.89756 22.6037 5.00139C22.5573 5.10523 22.5339 5.21788 22.535 5.33162C22.535 6.70613 26.1372 6.51653 26.1372 9.07597C26.1372 10.5334 25.0944 11.5999 23.3723 11.5999C22.7656 11.6235 22.1676 11.4489 21.6688 11.1026C21.17 10.7563 20.7975 10.2571 20.6075 9.68029L22.0176 8.99304C22.1191 9.29495 22.3112 9.5582 22.5678 9.74692C22.8244 9.93565 23.1329 10.0406 23.4513 10.0476C24.0675 10.0476 24.4348 9.7277 24.4348 9.19448C24.4348 7.77257 20.8563 8.00957 20.8563 5.35534C20.8563 3.95713 21.8754 2.98549 23.4632 2.98549C24.0356 2.96544 24.5988 3.13389 25.0662 3.46499C25.5336 3.79608 25.8793 4.27146 26.0503 4.81813Z" fill="white"/>
<path id="Vector_7" d="M29.0481 9.32087L28.3253 11.4537H26.6427L29.5813 3.15927H31.335L34.2736 11.4537H32.591L31.8682 9.32087H29.0481ZM30.4582 4.93666L29.4984 7.92269H31.4298L30.4582 4.93666Z" fill="white"/>
<path id="Vector_8" d="M35.1623 3.15927H36.8331V6.95102L39.5702 3.15927H41.4424L38.4564 7.10902L41.5372 11.434H39.6295L36.8647 7.40525V11.434H35.1623V3.15927Z" fill="white"/>
<path id="Vector_9" d="M42.3943 8.33738V3.15927H44.065V8.33738C44.065 9.39197 44.6694 10.0555 45.7358 10.0555C46.8022 10.0555 47.4065 9.39197 47.4065 8.33738V3.15927H49.1089V8.33738C49.1089 10.3123 47.9239 11.6078 45.7674 11.6078C43.6108 11.6078 42.3943 10.2925 42.3943 8.33738Z" fill="white"/>
<path id="Vector_10" d="M57.7983 4.3797L56.7437 5.46983C56.4693 5.17705 56.1368 4.94474 55.7675 4.78764C55.3983 4.63055 55.0003 4.55215 54.599 4.55746C52.9757 4.55746 51.9685 5.76609 51.9685 7.32229C51.9685 9.01673 53.106 10.0594 54.599 10.0594C55.3155 10.0954 56.0196 9.86305 56.5739 9.40772V8.3887H54.994V6.97866H58.1341V10.2609C57.1522 11.1751 55.8491 11.6648 54.5082 11.6236C53.3674 11.6236 52.2734 11.1704 51.4667 10.3637C50.6601 9.55707 50.2069 8.46305 50.2069 7.32229C50.2069 6.18152 50.6601 5.08745 51.4667 4.28081C52.2734 3.47416 53.3674 3.02101 54.5082 3.02101C55.1219 2.9985 55.7333 3.10818 56.301 3.3426C56.8687 3.57702 57.3793 3.93069 57.7983 4.3797Z" fill="white"/>
<path id="Vector_11" d="M61.207 9.32087L60.4842 11.4537H58.8016L61.7402 3.15927H63.4939L66.4325 11.4537H64.7499L64.0271 9.32087H61.207ZM62.617 4.93666L61.6572 7.92269H63.5887L62.617 4.93666Z" fill="white"/>
<path id="Vector_12" d="M67.3212 3.15927H69.9517C71.5987 3.15927 72.677 4.01244 72.677 5.3514C72.6837 5.71093 72.5952 6.06582 72.4203 6.38006C72.2455 6.6943 71.9907 6.95668 71.6817 7.1406C72.0586 7.2898 72.3815 7.54969 72.6078 7.886C72.8341 8.22231 72.9533 8.61928 72.9496 9.02464C72.9496 10.6361 71.6343 11.4537 70.1057 11.4537H67.3409L67.3212 3.15927ZM69.9399 6.5126C70.0725 6.52128 70.2055 6.50257 70.3305 6.45759C70.4556 6.41261 70.5701 6.34234 70.6668 6.25118C70.7635 6.16002 70.8404 6.0499 70.8927 5.92771C70.945 5.80552 70.9716 5.67389 70.9707 5.54098C70.9705 5.4078 70.9422 5.27617 70.8875 5.15473C70.8328 5.0333 70.753 4.92478 70.6534 4.83637C70.5538 4.74796 70.4366 4.68163 70.3095 4.64173C70.1825 4.60183 70.0484 4.58929 69.9161 4.60489H68.9919V6.51656L69.9399 6.5126ZM70.0109 10.02C70.1632 10.0342 70.3168 10.0167 70.462 9.96849C70.6072 9.9203 70.7408 9.8425 70.8544 9.74004C70.968 9.63759 71.0591 9.51269 71.122 9.37323C71.1848 9.23377 71.218 9.08281 71.2196 8.92985C71.2196 8.24259 70.6864 7.86343 70.0109 7.86343H68.9919V10.02H70.0109Z" fill="#009688"/>
<path id="Vector_13" d="M74.0989 3.15927H75.7697V9.94886H78.4713V11.4537H74.0989V3.15927Z" fill="#009688"/>
<path id="Vector_14" d="M78.5779 7.3065C78.5756 6.45294 78.8266 5.61789 79.2991 4.90704C79.7716 4.1962 80.4444 3.64153 81.2323 3.31326C82.0202 2.98499 82.8878 2.89789 83.7252 3.06298C84.5627 3.22806 85.3323 3.63789 85.9367 4.24062C86.5411 4.84335 86.953 5.61187 87.1204 6.44885C87.2878 7.28584 87.2031 8.15366 86.877 8.94247C86.5509 9.73128 85.9981 10.4056 85.2885 10.88C84.579 11.3545 83.7446 11.6078 82.8911 11.6078C82.3206 11.6264 81.7524 11.5279 81.2215 11.3185C80.6906 11.1091 80.2082 10.7931 79.8041 10.3901C79.4 9.9871 79.0827 9.50555 78.8718 8.97521C78.6609 8.44487 78.5609 7.87697 78.5779 7.3065ZM80.3198 7.3065C80.3198 8.88639 81.3981 10.0437 82.8911 10.0437C84.3841 10.0437 85.4465 8.88639 85.4465 7.3065C85.4465 5.7266 84.3683 4.5693 82.8753 4.5693C81.3823 4.5693 80.3119 5.7266 80.3119 7.3065H80.3198Z" fill="#009688"/>
<path id="Vector_15" d="M95.4868 4.3797L94.4322 5.46983C94.1578 5.17705 93.8253 4.94474 93.456 4.78764C93.0867 4.63055 92.6888 4.55215 92.2875 4.55746C90.6642 4.55746 89.657 5.76609 89.657 7.32229C89.657 9.01673 90.7945 10.0594 92.2875 10.0594C93.0039 10.0954 93.7081 9.86305 94.2624 9.40772V8.3887H92.6825V6.97866H95.8225V10.2609C94.8407 11.1751 93.5376 11.6648 92.1967 11.6236C91.0559 11.6236 89.9618 11.1704 89.1552 10.3637C88.3486 9.55707 87.8954 8.46305 87.8954 7.32229C87.8954 6.18152 88.3486 5.08745 89.1552 4.28081C89.9618 3.47416 91.0559 3.02101 92.1967 3.02101C92.8104 2.9985 93.4218 3.10818 93.9895 3.3426C94.5571 3.57702 95.0678 3.93069 95.4868 4.3797Z" fill="#009688"/>
</g>
</g>
</svg>
